<svg width="323" height="70" viewBox="0 0 323 70" fill="none" xmlns="http://www.w3.org/2000/svg">
<g clip-path="url(#clip0_10_100)">
<path d="M317.653 24.8624C318.581 24.8707 319.492 25.1145 320.297 25.5703C321.142 26.0362 321.832 26.7333 322.282 27.5769C322.754 28.4056 323.001 29.3392 323.001 30.2886C323.001 31.238 322.754 32.1716 322.282 33.0003C321.817 33.8389 321.121 34.5322 320.274 35.0014C319.463 35.4735 318.538 35.7227 317.596 35.7227C316.654 35.7227 315.729 35.4735 314.918 35.0014C314.076 34.5296 313.388 33.8329 312.933 32.992C312.462 32.1621 312.217 31.2273 312.221 30.2775C312.232 29.3208 312.488 28.3823 312.967 27.5491C313.434 26.7182 314.13 26.0334 314.975 25.5731C315.79 25.1121 316.713 24.8671 317.653 24.8624ZM317.653 25.9243C316.905 25.9261 316.17 26.1181 315.52 26.4816C314.842 26.8591 314.285 27.4151 313.911 28.0869C313.526 28.7518 313.319 29.5021 313.311 30.2672C313.302 31.0322 313.492 31.7868 313.863 32.4597C314.235 33.1361 314.792 33.697 315.472 34.0789C316.457 34.6388 317.629 34.7912 318.729 34.5028C319.829 34.2143 320.767 33.5085 321.338 32.5405L321.383 32.4652C321.765 31.7981 321.965 31.0456 321.965 30.2803C321.965 29.5149 321.765 28.7625 321.383 28.0953C321.018 27.4143 320.459 26.8526 319.775 26.4789C319.128 26.116 318.397 25.923 317.653 25.9187V25.9243ZM315.151 33.1843L315.191 27.4153H318.175C318.487 27.432 318.792 27.5127 319.071 27.6522C319.296 27.7863 319.479 27.9793 319.599 28.2096C319.741 28.4661 319.814 28.7538 319.812 29.0456C319.818 29.4368 319.674 29.8159 319.409 30.1075C319.11 30.4203 318.708 30.618 318.274 30.6649C318.42 30.7138 318.557 30.7873 318.677 30.8823C318.826 31.0213 318.961 31.1744 319.08 31.3393C319.119 31.3951 319.261 31.6319 319.483 32.0444L320.149 33.2289H318.714L318.243 32.3092C318.053 31.8675 317.781 31.4648 317.44 31.1219C317.208 30.9516 316.924 30.8659 316.635 30.8795H316.334V33.2484L315.151 33.1843ZM316.334 29.9152H316.791C317.206 29.9349 317.623 29.9097 318.033 29.8399C318.197 29.7975 318.34 29.6986 318.436 29.5612C318.535 29.4281 318.586 29.2662 318.58 29.1014C318.585 28.942 318.534 28.7859 318.436 28.6588C318.338 28.5316 318.199 28.441 318.042 28.4019C317.631 28.3267 317.213 28.2986 316.796 28.3183H316.328L316.334 29.9152Z" fill="white"/>
<path fill-rule="evenodd" clip-rule="evenodd" d="M94.1425 44.5244L98.128 23.926H102.587L100.394 36.1357C100.221 36.9782 100.126 37.8346 100.111 38.6941C100.111 39.1138 100.233 39.5248 100.463 39.8785C100.789 40.3626 101.269 40.7278 101.827 40.9181C102.633 41.1597 103.475 41.2671 104.318 41.2358H109.543L108.927 44.6721L94.1425 44.5244ZM118.2 27.7135H113.9L114.583 23.926H118.881L118.2 27.7135ZM115.168 44.7H110.856L113.593 29.4609H117.891L115.168 44.7ZM127.567 41.5396H129.688L131.274 32.7216H129.15C128.422 32.7059 127.693 32.7432 126.971 32.8331C126.574 32.9049 126.191 33.0385 125.836 33.2289C125.167 33.5797 124.6 34.0918 124.188 34.7171C123.74 35.4514 123.442 36.2646 123.312 37.1111C123.022 38.7387 123.178 39.885 123.78 40.5502C124.404 41.2079 125.658 41.5396 127.555 41.5396H127.567ZM133.322 44.1426C133.123 45.8834 132.329 47.5064 131.07 48.7466C129.749 49.7971 128.074 50.3214 126.378 50.2154H118.345L118.912 47.1246H126.231C126.913 47.1546 127.585 46.9583 128.14 46.5672C128.652 46.1696 128.988 45.5922 129.076 44.9564L129.118 44.7H125.799C124.569 44.754 123.337 44.6234 122.146 44.3126C121.416 44.0462 120.77 43.5976 120.271 43.0111C119.624 42.2837 119.187 41.3993 119.006 40.4499C118.787 39.3454 118.787 38.21 119.006 37.1055C119.21 35.9502 119.61 34.8367 120.189 33.8113C120.736 32.828 121.469 31.9567 122.35 31.2446C123.101 30.6107 123.977 30.1363 124.923 29.8511C126.09 29.5534 127.294 29.4193 128.5 29.4525H135.955L133.317 44.1426H133.322ZM140.357 23.9316H144.422L143.432 29.4609H147.074C149.344 29.4609 150.926 29.918 151.766 30.7819C152.606 31.6459 152.884 33.0867 152.535 35.046L150.796 44.7223H146.68L148.328 35.5253C148.444 35.1758 148.486 34.8067 148.452 34.4406C148.418 34.0745 148.308 33.7191 148.13 33.3961C147.844 33.1711 147.515 33.0057 147.162 32.9098C146.81 32.814 146.441 32.7898 146.079 32.8387H142.794L140.666 44.7251H136.647L140.368 23.9678L140.357 23.9316ZM155.553 29.4609H158.435L159.425 23.9316H163.518L162.54 29.4609H166.849L166.318 32.4847H161.989L160.88 38.6467C160.64 39.4241 160.698 40.2612 161.045 40.9989C161.36 41.456 162.006 41.6483 162.982 41.6483H164.667L164.117 44.686H160.367C159.764 44.7439 159.156 44.6626 158.591 44.4488C158.027 44.2349 157.52 43.8943 157.113 43.4542C156.767 42.9354 156.538 42.3502 156.44 41.7375C156.342 41.1249 156.378 40.4988 156.546 39.9008L157.896 32.4652H155.011L155.553 29.433V29.4609ZM169.265 29.4609L166.534 44.7H170.618L172.752 32.8136H176.036C176.77 32.7153 177.515 32.8979 178.116 33.3236C178.399 33.6581 178.456 34.4022 178.255 35.5532L176.607 44.7139H180.694L182.43 35.0348C182.789 33.0375 182.549 31.6069 181.71 30.7429C180.87 29.8789 179.286 29.447 176.958 29.447L169.265 29.4609ZM191.541 27.7246H187.25L187.953 23.9316H192.248L191.573 27.7191L191.541 27.7246ZM188.492 44.7251H184.197L186.949 29.4693H191.249L188.492 44.7251ZM194.764 29.4693H202.482C204.808 29.4693 206.392 29.9012 207.234 30.7652C208.075 31.6292 208.318 33.0589 207.963 35.0543L206.238 44.7334H202.145L203.793 35.5922C203.995 34.4551 203.948 33.7119 203.651 33.3626C203.052 32.9361 202.307 32.7552 201.575 32.8582H198.281L196.151 44.739H192.066L194.801 29.4999L194.764 29.4693ZM218.552 41.5563H220.691L222.271 32.7411H220.152C219.424 32.7244 218.696 32.7607 217.973 32.8498C217.577 32.9261 217.195 33.0595 216.839 33.2456C216.165 33.5952 215.592 34.1049 215.171 34.7282C214.727 35.458 214.433 36.2653 214.303 37.1055C214.008 38.7331 214.164 39.8795 214.771 40.5446C215.392 41.2051 216.646 41.5368 218.543 41.5368L218.552 41.5563ZM224.327 44.1593C224.128 45.9011 223.335 47.5257 222.078 48.7689C220.755 49.8165 219.082 50.3404 217.386 50.2377H209.344L209.912 47.1414H217.244C217.926 47.1727 218.599 46.9762 219.153 46.584C219.667 46.1861 220.003 45.6073 220.089 44.9703L220.138 44.7139H216.807C215.573 44.765 214.338 44.6296 213.145 44.3126C212.413 44.0487 211.765 43.5987 211.267 43.0083C210.631 42.2757 210.205 41.3897 210.034 40.4415C209.814 39.3371 209.814 38.2015 210.034 37.0972C210.246 35.9407 210.653 34.8273 211.239 33.803C211.787 32.821 212.521 31.9508 213.401 31.239C214.151 30.6051 215.027 30.1307 215.973 29.8455C217.129 29.552 218.321 29.4197 219.514 29.4525H226.963L224.336 44.1426L224.327 44.1593ZM239.855 27.5072C239.059 27.4652 238.262 27.5973 237.524 27.8942C236.786 28.1911 236.124 28.6453 235.586 29.224C234.569 30.3685 233.825 32.2553 233.356 34.8843C232.956 37.1891 233.047 38.7721 233.654 39.7002C234.261 40.6282 235.529 41.0937 237.407 41.0937H244.703L244.028 44.7167H236.548C235.256 44.7639 233.963 44.6307 232.71 44.321C231.632 43.9803 230.668 43.3603 229.919 42.5265C229.171 41.6927 228.665 40.6758 228.455 39.5831C228.162 37.9669 228.185 36.3109 228.523 34.7032C229.183 31.0151 230.479 28.308 232.412 26.582C234.345 24.8559 237.002 23.9817 240.383 23.9594H247.758L247.117 27.5128L239.855 27.5072ZM250.634 23.9511L246.913 44.7139H250.972L253.108 32.8275H256.39C256.752 32.7772 257.122 32.8006 257.474 32.8965C257.827 32.9924 258.156 33.1587 258.441 33.3849C258.618 33.7084 258.727 34.0637 258.762 34.4294C258.796 34.7952 258.756 35.1641 258.642 35.5142L256.994 44.7111H261.113L262.843 35.032C263.199 33.0793 262.944 31.6589 262.08 30.7708C261.229 29.8901 259.644 29.447 257.388 29.447H253.746L254.731 23.9065L250.634 23.9511ZM270.962 41.6343H276.09L276.649 38.46H271.827C271.117 38.4105 270.407 38.5461 269.768 38.8529C269.544 39.0046 269.357 39.2019 269.218 39.4313C269.08 39.6608 268.993 39.917 268.965 40.1823C268.902 40.3724 268.892 40.5753 268.933 40.7708C268.975 40.9663 269.068 41.1477 269.203 41.2971C269.735 41.5707 270.337 41.6814 270.933 41.6148L270.962 41.6343ZM267.677 29.4609H276.059C278.172 29.4609 279.684 29.9393 280.598 30.8962C281.5 31.8521 281.778 33.2651 281.449 35.1547L279.747 44.7H268.724C268.115 44.7574 267.501 44.6853 266.924 44.4886C266.346 44.2919 265.818 43.9752 265.376 43.5601C265.017 43.1103 264.771 42.5841 264.656 42.0236C264.541 41.4632 264.561 40.8841 264.716 40.3328C264.795 39.606 265.022 38.902 265.381 38.2622C265.741 37.6224 266.228 37.0596 266.812 36.6067C267.895 35.8635 269.55 35.4863 271.776 35.4752H277.166L277.236 35.0794C277.349 34.7512 277.364 34.3986 277.281 34.0622C277.197 33.7259 277.019 33.4196 276.766 33.1787C275.906 32.7181 274.925 32.5237 273.952 32.6213H267.144L267.711 29.4609H267.677ZM286.041 29.4609H292.912C294.519 29.4609 295.591 29.7461 296.128 30.3165C296.666 30.8869 296.811 31.8828 296.565 33.3041L296.094 35.8542H292.18L292.554 33.8782C292.618 33.6836 292.64 33.4784 292.621 33.275C292.602 33.0715 292.542 32.8738 292.444 32.6938C292.268 32.4903 291.794 32.39 291.025 32.39H289.607L287.414 44.6777H283.335L286.073 29.4386L286.041 29.4609ZM298.347 29.4609H301.251L302.247 23.9316H306.338L305.348 29.4609H309.676L309.143 32.4987H304.806L303.702 38.6579C303.463 39.4344 303.522 40.2702 303.867 41.0073C304.112 41.2609 304.416 41.4526 304.753 41.5661C305.09 41.6797 305.449 41.7117 305.801 41.6594H307.486L306.945 44.6972H303.192C302.589 44.7552 301.98 44.6743 301.414 44.4609C300.849 44.2476 300.341 43.9077 299.932 43.4681C299.585 42.9501 299.354 42.3649 299.256 41.7519C299.159 41.139 299.196 40.5125 299.365 39.9148L300.712 32.4847H297.825L298.347 29.4609Z" fill="white"/>
<path d="M61.0389 40.5669L51.5985 28.4966L54.2423 24.4695L61.0389 40.5669Z" fill="#1A1A18"/>
<path d="M67.3476 0H20.6876C13.8978 0 8.39362 5.40781 8.39362 12.0787V57.9213C8.39362 64.5922 13.8978 70 20.6876 70H67.3476C74.1374 70 79.6416 64.5922 79.6416 57.9213V12.0787C79.6416 5.40781 74.1374 0 67.3476 0Z" fill="url(#paint0_radial_10_100)"/>
<path d="M8.39362 53.7325L35.7871 17.1732L8.39362 31.618V53.7325Z" fill="url(#paint1_radial_10_100)"/>
<path d="M36.4225 55.1233L26.4602 41.2916L31.0102 36.7823L36.4225 55.1233Z" fill="#1A1A18"/>
<path d="M55.5982 10.2811L38.6578 27.1923L40.6463 31.5205L55.5982 10.2811Z" fill="#1A1A18"/>
<path d="M62.0374 43.9698L52.441 31.7016L55.1302 27.6076L62.0374 43.9698Z" fill="#1A1A18"/>
<path d="M68.1674 10.6768L62.8543 23.0788L55.5982 10.2811L40.6463 31.5205L35.7871 17.1732L4.60103 41.0881L0 67.4945L31.0102 36.7823L36.4225 55.1232L55.1302 27.5909L62.0374 43.9531L72.6351 15.8411L87.8083 3.46698L68.1674 10.6768Z" fill="#FFCC00"/>
<path d="M68.1673 10.6768L61.2374 20.2277L62.8543 23.0788L68.1673 10.6768Z" fill="#1A1A18"/>
<path d="M65.2768 64.284C65.2916 64.5299 65.2069 64.7715 65.0411 64.9563C64.8753 65.1411 64.6419 65.2541 64.3918 65.2705H60.9878C60.7344 65.2827 60.4864 65.1956 60.2982 65.0285C60.11 64.8613 59.9968 64.6277 59.9836 64.3787C59.9808 64.3472 59.9808 64.3155 59.9836 64.284V60.7557H61.2601V64.1808H64.0457V51.3608H65.3222L65.2768 64.284Z" fill="white"/>
<path d="M73.0605 64.284C73.0659 64.4161 73.0435 64.5479 72.9947 64.6712C72.9459 64.7944 72.8718 64.9064 72.7769 65.0002C72.6828 65.0953 72.569 65.1694 72.4432 65.2175C72.3174 65.2655 72.1826 65.2865 72.0479 65.2789H68.4879C68.3536 65.2861 68.2192 65.2655 68.0936 65.2184C67.9679 65.1712 67.8538 65.0987 67.7585 65.0054C67.6633 64.912 67.5891 64.8001 67.5408 64.6768C67.4924 64.5534 67.4711 64.4215 67.478 64.2895V60.7557H68.7545V64.1809H71.8124V60.8644L67.9007 56.2046C67.6336 55.9137 67.4834 55.5373 67.478 55.1455V52.3279C67.4714 52.1957 67.4933 52.0635 67.5421 51.9401C67.591 51.8167 67.6658 51.7048 67.7617 51.6117C67.8581 51.5197 67.9722 51.4476 68.0974 51.3997C68.2227 51.3518 68.3564 51.3292 68.4907 51.333H72.0507C72.1854 51.3258 72.3201 51.3469 72.4458 51.395C72.5716 51.443 72.6854 51.5169 72.7797 51.6117C72.8742 51.7058 72.9481 51.8179 72.9968 51.941C73.0456 52.0642 73.0683 52.1958 73.0634 52.3279V55.5552H71.8096V52.4255H68.746V55.3546L72.6776 59.9976C72.9286 60.2888 73.0654 60.6584 73.0634 61.04L73.0605 64.284Z" fill="white"/>
<path d="M218.755 19L220.421 11.412H223.151L223.529 9.662H216.081L215.689 11.412H218.419L216.753 19H218.755ZM231.145 19L233.203 9.662H231.201L230.389 13.33H225.993L226.791 9.662H224.803L222.745 19H224.733L225.601 15.08H230.011L229.143 19H231.145ZM239.593 19L239.957 17.278H235.351L235.827 15.108H240.349L240.727 13.4H236.219L236.653 11.37H241.259L241.651 9.662H235.043L232.985 19H239.593ZM251.269 19L253.327 9.662H250.457L246.873 15.598L245.921 9.662H243.205L241.147 19H243.135L244.633 12.168L245.767 19H246.635L250.765 12.168L249.267 19H251.269ZM259.732 19L260.096 17.278H255.49L255.966 15.108H260.488L260.866 13.4H256.358L256.792 11.37H261.398L261.79 9.662H255.182L253.124 19H259.732ZM261.104 17.432C261.888 18.454 263.498 19.168 265.332 19.168C267.642 19.168 269 17.698 269 16.046C269 14.422 267.348 13.792 266.046 13.33C265.164 13.008 264.45 12.714 264.45 12.21C264.45 11.692 264.982 11.23 265.752 11.23C266.676 11.23 267.824 11.622 268.482 12.42L269.714 11.034C268.888 10.068 267.488 9.522 266.004 9.522C263.694 9.522 262.364 11.02 262.364 12.434C262.364 14.1 263.988 14.716 265.29 15.178C266.172 15.5 266.886 15.794 266.886 16.354C266.886 16.858 266.48 17.432 265.486 17.432C264.198 17.432 262.98 16.858 262.322 15.99L261.104 17.432ZM279.871 19L280.235 17.278H275.629L276.105 15.108H280.627L281.005 13.4H276.497L276.931 11.37H281.537L281.929 9.662H275.321L273.263 19H279.871ZM283.483 9.662L281.425 19H285.093C289.475 19 291.141 16.13 291.141 13.68C291.141 11.258 289.167 9.662 287.095 9.662H283.483ZM283.805 17.25L285.093 11.412H286.717C288.103 11.412 289.069 12.448 289.069 13.806C289.069 15.668 287.711 17.25 285.457 17.25H283.805ZM293.462 19L295.52 9.662H293.532L291.474 19H293.462ZM299.473 19L301.139 11.412H303.869L304.247 9.662H296.799L296.407 11.412H299.137L297.471 19H299.473ZM303.652 14.982C303.652 17.544 305.654 19.168 308.244 19.168C311.324 19.168 313.662 16.732 313.662 13.68C313.662 11.132 311.66 9.508 309.084 9.508C306.004 9.508 303.652 11.93 303.652 14.982ZM311.59 13.82C311.59 15.822 310.148 17.404 308.356 17.404C306.858 17.404 305.724 16.438 305.724 14.856C305.724 12.854 307.152 11.272 308.958 11.272C310.456 11.272 311.59 12.252 311.59 13.82ZM321.469 19L320.181 15.542C321.693 15.262 322.841 13.988 322.841 12.294C322.841 10.67 321.469 9.662 319.957 9.662H315.967L313.909 19H315.897L316.625 15.654H318.179L319.271 19H321.469ZM317.017 13.946L317.577 11.37H319.565C320.209 11.37 320.755 11.832 320.755 12.49C320.755 13.33 320.139 13.946 319.089 13.946H317.017Z" fill="#FFCC00"/>
</g>
<defs>
<radialGradient id="paint0_radial_10_100" cx="0" cy="0" r="1" gradientUnits="userSpaceOnUse" gradientTransform="translate(44.019 35.0014) scale(69.0467 67.8373)">
<stop stop-color="#8A8A8A"/>
<stop offset="0.46" stop-color="#4E4E4E"/>
<stop offset="0.82" stop-color="#262626"/>
<stop offset="1" stop-color="#171717"/>
</radialGradient>
<radialGradient id="paint1_radial_10_100" cx="0" cy="0" r="1" gradientUnits="userSpaceOnUse" gradientTransform="translate(8.98647 26.0413) scale(30.7776 30.2385)">
<stop offset="0.25" stop-color="#8A8A8A"/>
<stop offset="0.5" stop-color="#515151"/>
<stop offset="0.77" stop-color="#171717"/>
</radialGradient>
<clipPath id="clip0_10_100">
<rect width="323" height="70" fill="white"/>
</clipPath>
</defs>
</svg>
